<svg xmlns="http://www.w3.org/2000/svg" viewBox="0 0 10 10"><defs><style>.a{fill:#c3e678;}.b{fill:#a5d76e;}.c{fill:#fff;}</style></defs><path class="a" d="M5,10a5,5,0,1,1,5-5A5.006,5.006,0,0,1,5,10Z"/><path class="b" d="M7.333,21.946a4.992,4.992,0,0,1-3.944-8.062,5,5,0,1,0,5.555,7.791A4.969,4.969,0,0,1,7.333,21.946Z" transform="translate(0 -13.613)"/><path class="c" d="M81.861,163.378a.344.344,0,0,1-.244-.1l-2.069-2.069a.345.345,0,0,1,.488-.488l1.825,1.825L85.41,159a.345.345,0,0,1,.488.488L82.1,163.277A.344.344,0,0,1,81.861,163.378Z" transform="translate(-77.896 -155.792)"/></svg>