<svg xmlns="http://www.w3.org/2000/svg" viewBox="0 0 24 24"><defs><style>.a{fill:rgba(255,255,255,0);}.b{fill:#d75a4a;}</style></defs><g transform="translate(-296 -350)"><circle class="a" cx="12" cy="12" r="12" transform="translate(296 350)"/><path class="b" d="M7.952,4.6A4.185,4.185,0,0,1,11.789,2a4.43,4.43,0,0,1,4.185,4.334,4.313,4.313,0,0,1-.136,1.638,7.243,7.243,0,0,1-2.207,3.681L7.952,16.72,2.369,11.653A7.241,7.241,0,0,1,.161,7.972,4.313,4.313,0,0,1,.026,6.334,4.43,4.43,0,0,1,4.211,2,4.055,4.055,0,0,1,7.952,4.6Z" transform="translate(300 353)"/></g></svg>