<svg xmlns="http://www.w3.org/2000/svg" viewBox="0 0 48 48"><defs><style>.a{fill:rgba(255,255,255,0);}.b{fill:rgba(3,15,41,0.9);}</style></defs><g transform="translate(-16 -221)"><path class="a" d="M24,0A24,24,0,1,1,0,24,24,24,0,0,1,24,0Z" transform="translate(16 221)"/><g transform="translate(25 125)"><path class="b" d="M30.494,117.289a.5.5,0,0,0,.5-.5v-3.213A1.575,1.575,0,0,0,29.423,112H1.573A1.575,1.575,0,0,0,0,113.573v3.213a.5.5,0,0,0,.5.5,2.711,2.711,0,1,1,0,5.423.5.5,0,0,0-.5.5v3.213A1.575,1.575,0,0,0,1.573,128H29.423A1.575,1.575,0,0,0,31,126.427v-3.213a.5.5,0,0,0-.5-.5,2.711,2.711,0,0,1,0-5.423ZM26.778,120a3.721,3.721,0,0,0,3.213,3.682v2.745a.57.57,0,0,1-.569.569H24.032c0-.011,0-.022,0-.033v-1.071a.5.5,0,0,0-1,0v1.071c0,.011,0,.022,0,.033H1.573A.57.57,0,0,1,1,126.427v-2.745a3.716,3.716,0,0,0,0-7.363v-2.745A.57.57,0,0,1,1.573,113H23.031c0,.011,0,.022,0,.033v1.071a.5.5,0,1,0,1,0v-1.071c0-.011,0-.022,0-.033h5.391a.57.57,0,0,1,.569.569v2.745A3.721,3.721,0,0,0,26.778,120Z" transform="translate(0 0)"/><path class="b" d="M344.5,216a.5.5,0,0,0-.5.5v1.071a.5.5,0,1,0,1,0V216.5A.5.5,0,0,0,344.5,216Z" transform="translate(-320.971 -97.038)"/><path class="b" d="M344.5,168a.5.5,0,0,0-.5.5v1.071a.5.5,0,0,0,1,0V168.5A.5.5,0,0,0,344.5,168Z" transform="translate(-320.971 -52.251)"/><path class="b" d="M344.5,264a.5.5,0,0,0-.5.5v1.071a.5.5,0,1,0,1,0V264.5A.5.5,0,0,0,344.5,264Z" transform="translate(-320.971 -141.824)"/><path class="b" d="M109.356,160H97.038A1.039,1.039,0,0,0,96,161.038v7.5a1.039,1.039,0,0,0,1.038,1.038h12.318a1.039,1.039,0,0,0,1.038-1.038v-7.5A1.039,1.039,0,0,0,109.356,160Zm.033,8.536a.034.034,0,0,1-.033.033H97.038a.034.034,0,0,1-.033-.033v-7.5a.034.034,0,0,1,.033-.033h12.318a.034.034,0,0,1,.033.033Z" transform="translate(-89.573 -44.787)"/><path class="b" d="M144.536,208H136.5a.5.5,0,1,0,0,1h8.033a.5.5,0,1,0,0-1Z" transform="translate(-126.895 -89.573)"/><path class="b" d="M138.109,240H136.5a.5.5,0,1,0,0,1h1.607a.5.5,0,0,0,0-1Z" transform="translate(-126.895 -119.431)"/><path class="b" d="M196.787,240H192.5a.5.5,0,0,0,0,1h4.284a.5.5,0,1,0,0-1Z" transform="translate(-179.146 -119.431)"/></g></g></svg>