<svg xmlns="http://www.w3.org/2000/svg" viewBox="0 0 48 48"><defs><style>.a{fill:rgba(255,255,255,0);}.b{fill:rgba(3,15,41,0.9);}</style></defs><g transform="translate(-16 -333)"><path class="a" d="M24,0A24,24,0,1,1,0,24,24,24,0,0,1,24,0Z" transform="translate(16 333)"/><g transform="translate(1.461 347)"><g transform="translate(29.539)"><path class="b" d="M47.5,17.042a14.508,14.508,0,0,1-1.524-6.455v-1.2A7.448,7.448,0,0,0,40.5,2.218V1.957a1.957,1.957,0,1,0-3.913,0v.262A7.448,7.448,0,0,0,31.1,9.391v1.2a14.508,14.508,0,0,1-1.524,6.455.391.391,0,0,0,.35.566h5.515a3.117,3.117,0,0,0,6.187,0h5.515a.391.391,0,0,0,.35-.566ZM37.365,1.957a1.174,1.174,0,1,1,2.348,0v.093l-.028,0-.049-.007-.118-.017-.063-.008L39.343,2l-.06-.006-.162-.014-.057,0-.116-.007-.065,0-.116,0-.057,0-.172,0-.172,0-.057,0-.116,0-.065,0-.116.007-.057,0-.162.014L37.734,2l-.112.013-.063.008-.118.017-.049.007-.028,0V1.957Zm1.174,17.609a2.339,2.339,0,0,1-2.3-1.957h4.608A2.339,2.339,0,0,1,38.539,19.565Zm-7.99-2.739q.173-.387.325-.783H33.06a.391.391,0,1,0,0-.783H31.149a15.287,15.287,0,0,0,.738-4.674v-1.2a6.664,6.664,0,0,1,5.293-6.512l.027-.006.108-.021.077-.014.077-.013.116-.018L37.63,2.8l.156-.019H37.8a6.775,6.775,0,0,1,1.481,0h.013l.156.019.046.006.116.018.077.013.077.014.108.021.027.006a6.664,6.664,0,0,1,5.293,6.512v1.2a15.3,15.3,0,0,0,1.338,6.239H30.548Z" transform="translate(-29.539)"/></g><g transform="translate(33.843 15.261)"><path class="b" d="M138.621,384.32a.367.367,0,0,0-.022-.073.384.384,0,0,0-.036-.068.38.38,0,0,0-.108-.108.385.385,0,0,0-.068-.036.369.369,0,0,0-.073-.022.383.383,0,0,0-.153,0,.369.369,0,0,0-.073.022.379.379,0,0,0-.068.036.378.378,0,0,0-.108.108.392.392,0,0,0-.036.068.369.369,0,0,0-.022.073.376.376,0,0,0,0,.153.369.369,0,0,0,.022.073.383.383,0,0,0,.036.068.372.372,0,0,0,.049.059.377.377,0,0,0,.06.049.384.384,0,0,0,.068.036.367.367,0,0,0,.073.022.376.376,0,0,0,.153,0,.367.367,0,0,0,.073-.022.382.382,0,0,0,.068-.036.382.382,0,0,0,.108-.108.387.387,0,0,0,.036-.068.367.367,0,0,0,.022-.073.376.376,0,0,0,0-.153Z" transform="translate(-137.846 -384.005)"/></g></g></g></svg>