<svg xmlns="http://www.w3.org/2000/svg" viewBox="0 0 48 48"><defs><style>.a{fill:rgba(255,255,255,0);}.b{fill:#030f29;}</style></defs><g transform="translate(-16 -277)"><path class="a" d="M24,0A24,24,0,1,1,0,24,24,24,0,0,1,24,0Z" transform="translate(16 277)"/><g transform="translate(30 221)"><g transform="translate(0 72)"><g transform="translate(0 0)"><path class="b" d="M21.714,72H1.143A1.143,1.143,0,0,0,0,73.143V86.857A1.143,1.143,0,0,0,1.143,88H21.714a1.143,1.143,0,0,0,1.143-1.143V73.143A1.143,1.143,0,0,0,21.714,72ZM22.1,86.857a.381.381,0,0,1-.381.381H1.143a.381.381,0,0,1-.381-.381V77.333H22.1Zm0-10.286H.762V75.048H22.1Zm0-2.286H.762V73.143a.381.381,0,0,1,.381-.381H21.714a.381.381,0,0,1,.381.381Z" transform="translate(0 -72)"/><path class="b" d="M56.381,304.762h4.571a.381.381,0,0,0,0-.762H56.381a.381.381,0,1,0,0,.762Z" transform="translate(-53.333 -292.952)"/><path class="b" d="M56.381,336.762h4.571a.381.381,0,1,0,0-.762H56.381a.381.381,0,0,0,0,.762Z" transform="translate(-53.333 -323.429)"/></g></g></g></g></svg>