<svg xmlns="http://www.w3.org/2000/svg" viewBox="0 0 48 48"><defs><style>.a{fill:rgba(255,255,255,0);}.b{fill:#030f29;}</style></defs><g transform="translate(-16 -389)"><path class="a" d="M24,0A24,24,0,1,1,0,24,24,24,0,0,1,24,0Z" transform="translate(16 389)"/><g transform="translate(29 402)"><path class="b" d="M20.867,8.556H18.809a.79.79,0,0,1-.559-1.349l1.455-1.455a1.134,1.134,0,0,0,0-1.6L17.851,2.295a1.16,1.16,0,0,0-1.6,0L14.793,3.749a.79.79,0,0,1-1.349-.559V1.133A1.134,1.134,0,0,0,12.312,0H9.688A1.134,1.134,0,0,0,8.556,1.133V3.191a.79.79,0,0,1-1.349.559L5.752,2.295a1.16,1.16,0,0,0-1.6,0L2.295,4.149a1.134,1.134,0,0,0,0,1.6L3.75,7.207a.79.79,0,0,1-.559,1.349H1.133A1.134,1.134,0,0,0,0,9.688v2.623a1.134,1.134,0,0,0,1.133,1.133H3.191a.79.79,0,0,1,.559,1.349L2.295,16.248a1.134,1.134,0,0,0,0,1.6l1.855,1.855a1.159,1.159,0,0,0,1.6,0L7.207,18.25a.79.79,0,0,1,1.349.559v2.058A1.134,1.134,0,0,0,9.688,22h2.623a1.134,1.134,0,0,0,1.133-1.133V18.809a.79.79,0,0,1,1.349-.559l1.455,1.455a1.16,1.16,0,0,0,1.6,0l1.855-1.855a1.134,1.134,0,0,0,0-1.6L18.25,14.793a.79.79,0,0,1,.559-1.349h2.058A1.134,1.134,0,0,0,22,12.312V9.688A1.134,1.134,0,0,0,20.867,8.556Zm.318,3.756a.318.318,0,0,1-.318.318H18.809a1.605,1.605,0,0,0-1.135,2.74l1.455,1.455a.318.318,0,0,1,0,.45l-1.855,1.855a.318.318,0,0,1-.45,0L15.37,17.674a1.605,1.605,0,0,0-2.74,1.135v2.058a.318.318,0,0,1-.318.318H9.688a.318.318,0,0,1-.318-.318V18.809a1.58,1.58,0,0,0-.991-1.483,1.624,1.624,0,0,0-.625-.127,1.583,1.583,0,0,0-1.125.474L5.175,19.129a.318.318,0,0,1-.45,0L2.871,17.274a.318.318,0,0,1,0-.45l1.455-1.455a1.6,1.6,0,0,0-1.135-2.74H1.133a.318.318,0,0,1-.318-.318V9.688a.318.318,0,0,1,.318-.318H3.191A1.605,1.605,0,0,0,4.326,6.63L2.871,5.175a.318.318,0,0,1,0-.45L4.726,2.871a.318.318,0,0,1,.45,0L6.63,4.325A1.605,1.605,0,0,0,9.37,3.191V1.133A.318.318,0,0,1,9.688.815h2.623a.318.318,0,0,1,.318.318V3.191a1.605,1.605,0,0,0,2.74,1.135l1.455-1.455a.318.318,0,0,1,.45,0l1.855,1.855a.318.318,0,0,1,0,.45L17.674,6.631a1.605,1.605,0,0,0,1.135,2.74h2.058a.318.318,0,0,1,.318.317Z" transform="translate(0 0)"/><path class="b" d="M21.667,18a3.667,3.667,0,1,0,3.667,3.667A3.671,3.671,0,0,0,21.667,18Zm0,6.519a2.852,2.852,0,1,1,2.852-2.852A2.856,2.856,0,0,1,21.667,24.519Z" transform="translate(-10.667 -10.667)"/></g></g></svg>