<svg xmlns="http://www.w3.org/2000/svg" viewBox="0 0 24 24"><defs><style>.a{fill:rgba(255,255,255,0);}.b{fill:#fff156;}</style></defs><g transform="translate(-326 -350)"><circle class="a" cx="12" cy="12" r="12" transform="translate(326 350)"/><g transform="translate(330 327.592)"><path class="b" d="M15.83,32.149l-4.571-4.571a.572.572,0,0,0-.973.4v2.286h-2q-6.366,0-7.813,3.6A8.131,8.131,0,0,0,0,36.837a10.722,10.722,0,0,0,1.134,4.027q.027.063.094.214t.121.268a1.015,1.015,0,0,0,.116.2.305.305,0,0,0,.25.152.261.261,0,0,0,.21-.089A.333.333,0,0,0,2,41.381a1.818,1.818,0,0,0-.022-.237,1.847,1.847,0,0,1-.022-.21q-.045-.607-.045-1.1a7.6,7.6,0,0,1,.156-1.616A4.852,4.852,0,0,1,2.5,36.984a3.106,3.106,0,0,1,.714-.9,4.192,4.192,0,0,1,.942-.621,5.107,5.107,0,0,1,1.188-.379,11.322,11.322,0,0,1,1.375-.192q.692-.054,1.567-.054h2v2.286a.568.568,0,0,0,.973.4l4.571-4.572a.561.561,0,0,0,0-.8Z"/></g></g></svg>